<?xml version="1.0" standalone="no"?>
<!DOCTYPE svg PUBLIC "-//W3C//DTD SVG 20010904//EN"
 "http://www.w3.org/TR/2001/REC-SVG-20010904/DTD/svg10.dtd">
<svg version="1.0" xmlns="http://www.w3.org/2000/svg" viewBox="0 0 512.000000 512.000000">

<g transform="translate(0.000000,512.000000) scale(0.100000,-0.100000)">
<path d="M1125 4711 c-90 -22 -172 -90 -215 -176 l-25 -50 -3 -1301 -2 -1302
-23 -5 c-12 -3 -112 -25 -222 -48 -258 -54 -308 -79 -363 -183 -25 -48 -27
-61 -30 -208 l-4 -158 -54 0 c-45 0 -59 -4 -79 -25 -25 -24 -25 -26 -25 -215
0 -189 0 -191 25 -215 l24 -25 299 0 300 0 6 -34 c13 -67 74 -171 134 -228
192 -183 472 -183 664 0 60 57 121 161 134 228 l6 34 928 0 928 0 6 -34 c13
-67 74 -171 134 -228 192 -183 472 -183 664 0 60 57 121 161 134 228 l6 34
148 0 c170 0 221 12 296 69 31 23 60 58 83 101 32 59 36 72 36 145 0 66 -5 90
-26 136 -33 70 -87 125 -156 156 l-53 24 0 155 c0 169 -10 261 -42 369 -25 85
-93 224 -143 291 -85 112 -213 223 -322 278 l-53 26 -2 968 -3 967 -34 63
c-37 69 -79 109 -151 144 l-45 23 -1425 2 c-784 0 -1438 -2 -1455 -6z m2881
-177 c15 -11 37 -33 48 -48 21 -27 21 -36 24 -952 1 -508 1 -924 0 -924 -2 0
-39 7 -83 15 -62 11 -181 14 -517 15 l-438 0 0 240 0 240 320 0 320 0 0 -160
0 -160 80 0 80 0 0 215 c0 216 0 216 -25 240 l-24 25 -431 0 -431 0 -24 -25
-25 -24 0 -295 0 -294 -67 -7 c-309 -29 -559 -95 -798 -211 -49 -24 -90 -44
-92 -44 -2 0 -3 11 -3 25 0 14 -11 37 -25 50 l-24 25 -271 0 -271 0 -24 -25
c-24 -23 -25 -29 -25 -160 l0 -135 80 0 80 0 0 80 0 80 160 0 c150 0 160 -1
160 -19 0 -12 -30 -40 -84 -79 -45 -34 -125 -98 -177 -144 l-93 -82 -171 -38
c-93 -21 -176 -38 -182 -38 -17 0 -19 2493 -2 2537 14 37 47 73 84 89 25 11
280 13 1437 11 1403 -2 1407 -2 1434 -23z m-966 -2294 l0 -240 -690 0 c-379 0
-690 2 -690 4 0 6 169 129 235 171 33 21 107 62 165 90 280 140 562 208 878
213 l102 2 0 -240z m720 0 l0 -240 -280 0 -280 0 0 240 0 240 280 0 280 0 0
-240z m365 185 c128 -48 266 -151 353 -265 26 -34 92 -143 92 -152 0 -5 -146
-8 -325 -8 l-325 0 0 239 0 239 68 -13 c37 -7 98 -25 137 -40z m502 -597 c4
-7 9 -97 11 -200 l4 -188 -93 0 -94 0 -69 45 c-221 143 -507 151 -741 20 -87
-48 -199 -156 -250 -239 l-40 -65 -755 0 -755 0 -45 71 c-216 338 -679 429
-1009 197 l-72 -50 3 133 3 133 355 77 355 76 1592 1 c1263 1 1593 -2 1600
-11z m-4067 -243 l0 -65 -81 0 -81 0 7 28 c13 54 66 90 148 101 4 1 7 -28 7
-64z m821 -177 c93 -34 147 -68 213 -134 63 -63 116 -152 140 -233 23 -78 22
-81 -23 -81 -36 0 -39 2 -45 34 -13 67 -74 171 -134 228 -192 183 -472 183
-664 0 -60 -57 -121 -161 -134 -228 -6 -32 -9 -34 -45 -34 -48 0 -49 11 -16
103 33 91 67 145 133 211 80 80 176 132 289 157 70 15 213 3 286 -23z m2800 0
c93 -34 147 -68 213 -134 63 -63 116 -152 140 -233 23 -78 22 -81 -23 -81 -36
0 -39 2 -45 34 -13 67 -74 171 -134 228 -192 183 -472 183 -664 0 -60 -57
-121 -161 -134 -228 -6 -32 -9 -34 -45 -34 -48 0 -49 11 -16 103 33 91 67 145
133 211 80 80 176 132 289 157 70 15 213 3 286 -23z m-3548 -88 l-28 -40 -102
0 -103 0 0 40 0 40 131 0 130 0 -28 -40z m4173 -66 c53 -39 69 -71 69 -134 0
-44 -5 -66 -21 -86 -30 -41 -65 -64 -105 -70 l-36 -6 -7 52 c-8 61 -46 167
-82 228 l-26 44 90 -3 c72 -3 96 -8 118 -25z m-3471 -85 c63 -30 123 -90 155
-154 20 -41 25 -65 25 -135 -1 -77 -4 -91 -34 -148 -38 -70 -70 -101 -145
-140 -43 -22 -64 -26 -136 -26 -70 -1 -94 4 -135 24 -260 128 -238 495 35 594
63 23 170 16 235 -15z m2800 0 c63 -30 123 -90 155 -154 20 -41 25 -65 25
-135 -1 -77 -4 -91 -34 -148 -38 -70 -70 -101 -145 -140 -43 -22 -64 -26 -136
-26 -70 -1 -94 4 -135 24 -260 128 -238 495 35 594 63 23 170 16 235 -15z
m-3620 -66 c-4 -10 -12 -46 -18 -80 l-11 -63 -123 0 -123 0 0 80 0 80 141 0
c130 0 141 -1 134 -17z m2781 -79 c-3 -9 -6 -27 -6 -40 l0 -24 -690 0 -690 0
0 24 c0 13 -3 31 -6 40 -6 15 60 16 696 16 636 0 702 -1 696 -16z"/>
<path d="M1225 4375 l-25 -24 0 -431 0 -431 25 -24 24 -25 1311 0 1311 0 24
25 25 24 0 431 0 431 -25 24 -24 25 -1311 0 -1311 0 -24 -25z m2535 -455 l0
-320 -1200 0 -1200 0 0 320 0 320 1200 0 1200 0 0 -320z"/>
<path d="M1305 3255 l-25 -24 0 -271 0 -271 25 -24 24 -25 271 0 271 0 24 25
25 24 0 271 0 271 -25 24 -24 25 -271 0 -271 0 -24 -25z m455 -295 l0 -160
-160 0 -160 0 0 160 0 160 160 0 160 0 0 -160z"/>
<path d="M2105 3255 l-25 -24 0 -271 0 -271 25 -24 24 -25 271 0 271 0 24 25
25 24 0 271 0 271 -25 24 -24 25 -271 0 -271 0 -24 -25z m455 -295 l0 -160
-160 0 -160 0 0 160 0 160 160 0 160 0 0 -160z"/>
<path d="M2640 1680 l0 -80 160 0 160 0 0 80 0 80 -160 0 -160 0 0 -80z"/>
<path d="M1135 1026 c-101 -44 -125 -178 -46 -257 65 -65 157 -65 222 0 124
124 -15 327 -176 257z"/>
<path d="M3935 1026 c-101 -44 -125 -178 -46 -257 65 -65 157 -65 222 0 124
124 -15 327 -176 257z"/>
</g>
</svg>
